# xmcd
#
# Track frame offsets:
#	150
#	23942
#	46929
#	71946
#	92851
#	113448
#	131643
#	151793
#	172868
#	193938
#	207889
#	227611
#	245101
#	281711
#	321855
#
# Disc length: 4647 seconds
#
# Revision: 1
# Processed by: cddbd v1.5.2PL0 Copyright (c) Steve Scherf et al.
# Submitted via: audiograbber 1.83.01
#
DISCID=d312250f
DTITLE=Kenny Lattimore - Never Too Busy: The Anthology [CD1]
DYEAR=2018
DGENRE=Blues
TTITLE0=Funny Feeling - Maniquin
TTITLE1=Just What It Takes
TTITLE2=Never Too Busy
TTITLE3=Joy
TTITLE4=Destiny
TTITLE5=Can't Get Enough
TTITLE6=If Love Is What You Want
TTITLE7=Weekend
TTITLE8=Come to Me
TTITLE9=Figure It Out (w Chante Moore)
TTITLE10=Tonight (2 Step) (w Chante Moore)
TTITLE11=Don't Deserve
TTITLE12=Days Like This (Lattimaw Soul House Mix)
TTITLE13=If I Lose My Woman (M.A.W. Remix)
TTITLE14=Just What It Takes (Human Rhythm Remix)
EXTD=
EXTT0=
EXTT1=
EXTT2=
EXTT3=
EXTT4=
EXTT5=
EXTT6=
EXTT7=
EXTT8=
EXTT9=
EXTT10=
EXTT11=
EXTT12=
EXTT13=
EXTT14=
PLAYORDER=
